<svg id="Layer_1" data-name="Layer 1" xmlns="http://www.w3.org/2000/svg" viewBox="0 0 288.4 132"><defs><style>.cls-1,.cls-2{fill:none;stroke:#000;stroke-linecap:round;stroke-linejoin:round}.cls-1{stroke-width:1.5px}.cls-2{stroke-width:1.25px}</style></defs><title>step-1</title><path d="M49 27.84a1.24 1.24 0 1 1 1.24-1.24A1.24 1.24 0 0 1 49 27.84M52.87 27.84a1.24 1.24 0 1 1 1.24-1.24 1.24 1.24 0 0 1-1.24 1.24M56.84 27.84a1.24 1.24 0 1 1 1.24-1.24 1.24 1.24 0 0 1-1.24 1.24"/><path class="cls-1" d="M44.4 30.46h113.24m0-8.1H44.4V84.5h113.24zm71.22 47.24a15.86 15.86 0 0 0-2.25 7.65m22.26-18.19l-11.05-11.11M246 64.12l-3.41-3.46m41.73-26l-9.47-9.37m4.08 13.35l-5.59-5.53m-.15 11.5L267.62 39m.67 12.21L263 46m.84 12.66l-5.32-5.27m1.16 12.55l-5.32-5.27m1 12.55L250 67.94m-.12 12l-5.26-5.34m-1.61 10l-5.26-5.34m-4.38 7.39l-5.26-5.34m10.43-9.2l-3.41-3.46M234 74.84l-9.49-9.64m-8.4 8.92s9 9.49 11 10.95c2.4 1.73 10.47 3.72 18.51-1.56s10.55-10.64 20.5-27.87 21.5-23.14 21.5-23.14l-9.38-9.5c-15.3 8.28-25.73 29.82-26.86 32s-7.82 16.63-18.48 20.72-15.75-.68-16.77-1.59-9.52-10.55 2-22.57c3-3.16 6.74-5.67 11.19-6.14 3.35-.35 7.23.45 9.18 3.47a9.79 9.79 0 0 1 1.5 5.44 11.49 11.49 0 0 1-.55 3.36 12.63 12.63 0 0 1-4.65 6.23c-4.85 3.58-8.66 2.84-10.71.89a5.12 5.12 0 0 1-1.65-3.6A9.53 9.53 0 0 1 225.2 55l9.15 9.11m-212.24 47h157.83M18.58 117h164.51m-60.15 14l-2-6.44a1.54 1.54 0 0 0-1.38-1.12H82.12c-.69 0-1.1.46-1.41 1.12l-2.33 6.21M172.46 9.52H28.29A4.29 4.29 0 0 0 24 13.81v78.36a4.29 4.29 0 0 0 4.29 4.29h144.17a4.29 4.29 0 0 0 4.29-4.29V13.81a4.29 4.29 0 0 0-4.29-4.29zM7.13 131.25h186.63c5 0 8.14-2.35 5.85-5.85l-14.87-20.17H16L1.29 125.4c-1.89 2.86 1.47 5.85 5.84 5.85zM178.89.75h-157A5.85 5.85 0 0 0 16 6.6v98.64h168.74V6.6a5.85 5.85 0 0 0-5.85-5.85z"/><path class="cls-2" d="M84.82 46.39l-6.31-5.75m6.31 28.15l-6.31 5.75M116 46.39l6.31-5.75M116 68.79l6.31 5.75m0-33.9h-43.8v33.9h43.77zM116 46.39H84.82v22.4H116z"/></svg>