<svg id="Layer_1" data-name="Layer 1" xmlns="http://www.w3.org/2000/svg" viewBox="0 0 285.47 149.22"><defs><style>.cls-1,.cls-2,.cls-3{fill:none;stroke:#000;stroke-linecap:round;stroke-linejoin:round}.cls-1{stroke-width:1.5px}.cls-2{stroke-width:1.75px}.cls-3{stroke-width:2px}</style></defs><title>step-2</title><path class="cls-1" d="M65 132.76h76.13"/><path d="M74.65 70.36V68.2h-17.8v24.56h2.34V81.83h13.59v-2.16H59.19v-6.34l2.97-2.97h12.49z"/><path class="cls-2" d="M60.68 133.62A14.71 14.71 0 1 1 46 118.91a14.72 14.72 0 0 1 14.68 14.71zm-7.53 0a7.18 7.18 0 1 1-7.15-7.18 7.18 7.18 0 0 1 7.15 7.18zm117.31 0a14.71 14.71 0 1 1-14.71-14.72 14.72 14.72 0 0 1 14.71 14.72zm-7.53 0a7.18 7.18 0 1 1-7.18-7.19 7.18 7.18 0 0 1 7.18 7.19zm2.3-68H148s-6.94-.58-4.69 5.86c2.49 7.1 4.34 15.11 8.16 15.11H179m-43.89 16.5H147m38.74 2.63s-13.22.41-13.22 15m13.48-.12v-15.48c-1.26-15.18-23.08-42.5-23.08-42.5-5-6.36-10.1-7-12-7h-25.2c-1 0-1.86 1.25-1.86 2.79v62.33h.14m-.16-.15V42.31a3.51 3.51 0 0 0-3.51-3.51H10a3.51 3.51 0 0 0-3.51 3.51v78.41h.3"/><path class="cls-3" d="M65.06 103.37a23.6 23.6 0 1 0-23.6-23.6 23.6 23.6 0 0 0 23.6 23.6"/><path class="cls-2" d="M31 132.79H3.9a3 3 0 0 1-3-3.06v-6a3 3 0 0 1 3-3.06h34.71m102.49 12.12H60.82m102.08-12.17h27.82a3 3 0 0 1 3 3.06v6a3 3 0 0 1-3 3.06h-20.28M53.31 120.62h95.33"/><path class="cls-1" d="M197.48 61.63l-11.1 10.09m11.1-60.37L186.34 1.09m67.47 10.37L265 1.08m-11.19 20.14v-9.87h-56.33v50.28h9.31m58.55-39.91V.75H186v71.49h20.69m6.71-43L207 22m6.39 64.31L207 93.53m71.37-7.17l6.39 7.17m-6.67-64l6.39-7.17m-15.34 16.89h-46.6v37.08h46.61zm9.19-10h-65v57.11h65zm6.39-7.25H207v71.53h77.75z"/></svg>